<svg id="Capa_1" enable-background="new 0 0 511.944 511.944" height="512" viewBox="0 0 511.944 511.944" width="512" xmlns="http://www.w3.org/2000/svg"><g clip-rule="evenodd" fill-rule="evenodd"><path d="m136.86 394.893c-26.759-.68-53.603 7.426-66.869 22.081-6.265 6.945-1.701 4.79-10.12 6.349-13.55 2.551-24.945 15.335-27.694 31.974-1.162 7.03-1.616 3.146-13.351 9.297-16.384 8.532-14.003 36.877.539 36.877h58.734 58.762 44.759 5.726c46.12 0 57.855-2.579 57.855-44.332l-9.468-17.688c-5.187-8.504-13.068-14.456-21.855-16.129-8.419-1.559-3.855.595-10.148-6.349-13.238-14.653-40.082-22.76-66.87-22.08z" fill="#80d261"/><path d="m375.084 394.893c-26.787-.68-53.632 7.426-66.869 22.081-6.293 6.945-1.729 4.79-10.148 6.349-8.787 1.672-16.668 7.625-21.855 16.129-14.797 19.36-21.09 40.109-19.984 62.02h74.126 44.731 58.762 58.734c14.542 0 16.923-28.345.539-36.877-11.735-6.151-12.189-2.268-13.351-9.297-2.75-16.639-14.145-29.423-27.694-31.974-8.419-1.559-3.855.595-10.12-6.349-13.24-14.655-40.084-22.762-66.871-22.082z" fill="#80d261"/><path d="m376.53 394.865c15.052 17.716 24.293 41.526 24.293 67.689 0 13.804-2.58 26.957-7.228 38.918h40.252 58.734c14.542 0 16.923-28.345.539-36.877-11.735-6.151-12.189-2.268-13.351-9.297-2.75-16.639-14.145-29.423-27.694-31.974-8.419-1.559-3.855.595-10.12-6.349-13.013-14.4-39.148-22.479-65.425-22.11z" fill="#4fc122"/><path d="m136.86 394.893c-6.435-.17-12.926.198-19.191 1.02 15.335 15.647 24.803 37.218 24.803 61.056 0 16.27-4.422 31.492-12.104 44.502h6.491 44.759 5.726c-6.548 0-11.906-5.357-11.906-11.905v-20.494c0-6.548 5.357-11.933 11.906-11.933h48.387v-17.688c-5.187-8.504-13.068-14.456-21.855-16.129-8.419-1.559-3.855.595-10.148-6.349-13.236-14.653-40.08-22.76-66.868-22.08z" fill="#4fc122"/><path d="m126.712 142.704c0 65.138 47.055 119.249 109.02 130.219 7.54 1.332 15.307 2.041 23.216 2.041 5.868 0 11.622-.368 17.263-1.105 64.885-8.447 115.002-63.947 115.002-131.154 0-73.018-59.216-132.232-132.264-132.232-73.021-.001-132.237 59.213-132.237 132.231z" fill="#fd8087"/><path d="m235.733 457.14h-48.387c-6.548 0-11.906 5.386-11.906 11.933v20.494c0 6.548 5.357 11.905 11.906 11.905h143.008c6.548 0 11.906-5.357 11.906-11.905v-20.494c0-6.548-5.357-11.933-11.906-11.933h-54.142z" fill="#00c0fa"/><path d="m235.733 272.923v166.53 17.688h40.479v-17.688-165.595c-5.641.737-11.395 1.105-17.263 1.105-7.909.001-15.676-.708-23.216-2.04z" fill="#ececec"/><path d="m255.972 274.935v164.517 17.688h20.239v-17.688-165.594c-5.641.737-11.395 1.105-17.263 1.105-.992.001-1.984.001-2.976-.028z" fill="#d7d0d6"/><path d="m305.125 469.073v20.494c0 6.548-5.357 11.905-11.934 11.905h37.162c6.548 0 11.906-5.357 11.906-11.905v-20.494c0-6.548-5.357-11.933-11.906-11.933h-37.162c6.576 0 11.934 5.386 11.934 11.933z" fill="#08a9f1"/><path d="m255.972 274.935c.992.028 1.984.028 2.976.028-.992.001-1.984.001-2.976-.028zm-13.096-263.499c62.447 10.573 110.013 64.911 110.013 130.389 0 53.176-31.408 99.039-76.677 120.043-11.934 5.527-24.803 9.326-38.324 11.083-.397.057-.794.113-1.191.142 6.293 1.077 12.728 1.701 19.276 1.842.992.028 1.984.028 2.976.028 5.868 0 11.622-.368 17.263-1.105 64.885-8.447 115.002-63.947 115.002-131.154 0-73.018-59.216-132.232-132.264-132.232-5.416 0-10.802.312-16.074.964z" fill="#fd4755"/><path d="m188.054 128.333v28.771c0 7.313 5.981 13.294 13.294 13.294h115.228c7.313 0 13.294-5.981 13.294-13.294v-28.771c0-7.313-5.981-13.294-13.294-13.294h-115.227c-7.314 0-13.295 5.98-13.295 13.294z" fill="#ececec"/><path d="m316.577 115.039h-37.587c7.342 0 13.323 5.981 13.323 13.294v28.771c0 7.313-5.981 13.294-13.323 13.294h37.587c7.313 0 13.294-5.981 13.294-13.294v-28.771c0-7.314-5.981-13.294-13.294-13.294z" fill="#d7d0d6"/></g><path d="m496.6 457.952c-4.345-2.277-7.423-3.371-9.459-4.032-3.286-19.542-16.806-34.789-33.703-37.971-1.226-.227-2.211-.384-2.987-.499-.66-.864-1.585-2.011-2.932-3.503-14.129-15.642-42.542-25.27-72.436-24.556-29.876-.707-58.305 8.914-72.427 24.547-1.356 1.497-2.288 2.646-2.951 3.51-.781.116-1.781.275-3.041.508-4.55.866-8.929 2.66-12.953 5.225v-140.915c65.296-11.722 115.002-68.947 115.002-137.562 0-77.048-62.698-139.731-139.765-139.731-41.771 0-81.02 18.471-107.66 50.651-1.838 2.199-3.693 4.593-5.672 7.32-2.434 3.352-1.688 8.042 1.664 10.476 3.35 2.433 8.042 1.688 10.475-1.664 1.777-2.448 3.427-4.579 5.065-6.54 23.804-28.752 58.841-45.243 96.128-45.243 68.796 0 124.765 55.954 124.765 124.731 0 68.793-55.969 124.76-124.765 124.76-68.78 0-124.736-55.967-124.736-124.76 0-15.276 2.725-30.181 8.099-44.301 1.473-3.871-.471-8.204-4.342-9.677-3.87-1.474-8.204.471-9.678 4.342-6.024 15.83-9.079 32.53-9.079 49.636 0 66.512 46.697 122.314 109.021 136.35v57.023c0 4.142 3.357 7.5 7.5 7.5s7.5-3.358 7.5-7.5v-54.502c5.161.58 10.403.889 15.716.889 3.282 0 6.536-.123 9.763-.346v167.522h-25.479v-80.938c0-4.142-3.357-7.5-7.5-7.5s-7.5 3.358-7.5 7.5v52.482c-4.031-2.569-8.422-4.366-12.99-5.235-1.234-.229-2.226-.386-3.004-.501-.663-.864-1.593-2.01-2.943-3.501-14.131-15.642-42.57-25.275-72.435-24.556-29.896-.722-58.272 8.913-72.439 24.561-1.344 1.49-2.269 2.635-2.928 3.499-.778.116-1.769.273-3.01.503-16.876 3.178-30.395 18.425-33.681 37.967-2.036.66-5.111 1.753-9.441 4.023-13.243 6.895-17.357 23.008-14.503 34.666 2.471 10.092 9.562 16.362 18.506 16.362h162.255c.772 0 1.517-.117 2.218-.334 1.14.209 2.308.334 3.508.334h143.008 162.226c8.944 0 16.035-6.27 18.506-16.362 2.853-11.658-1.26-27.771-14.486-34.658zm-161.842 31.615c0 2.388-2.018 4.405-4.405 4.405h-143.008c-2.388 0-4.405-2.018-4.405-4.405v-20.494c0-2.403 2.018-4.434 4.405-4.434h143.008c2.388 0 4.405 2.03 4.405 4.434zm-319.329-.523c-1.519-6.202.633-14.554 6.878-17.806 3.835-2.01 6.176-2.751 7.884-3.292 6.063-1.92 8.256-4.589 9.386-11.425 2.184-13.213 11.1-23.833 21.66-25.822 1.521-.281 2.539-.424 3.357-.539 3.657-.513 5.704-1.315 8.163-4.714.525-.726 1.245-1.72 2.793-3.437 11.206-12.378 35.742-20.261 61.12-19.617.127.003.254.003.381 0 25.353-.65 49.935 7.237 61.121 19.62 1.565 1.728 2.292 2.724 2.822 3.452 2.468 3.386 4.512 4.186 8.159 4.697.818.115 1.837.258 3.321.533 6.008 1.144 11.661 5.116 15.758 10.997v7.951h-40.888c-10.7 0-19.405 8.718-19.405 19.434v20.494c0 1.517.193 2.987.524 4.405h-149.098c-2.463-.003-3.574-3.449-3.936-4.931zm481.086 0c-.362 1.482-1.473 4.928-3.936 4.928h-143.344c.331-1.418.524-2.888.524-4.405v-20.494c0-10.716-8.705-19.434-19.405-19.434h-46.642v-7.951c4.097-5.881 9.746-9.853 15.721-10.99 1.521-.282 2.54-.424 3.358-.54 3.647-.511 5.691-1.311 8.159-4.697.53-.728 1.257-1.724 2.83-3.46 11.18-12.375 35.741-20.248 61.113-19.611.127.003.254.003.381 0 25.358-.65 49.937 7.237 61.11 19.606 1.558 1.728 2.277 2.722 2.803 3.448 2.459 3.399 4.506 4.201 8.163 4.714.818.115 1.837.258 3.335.535 10.583 1.993 19.499 12.612 21.683 25.826 1.13 6.835 3.322 9.505 9.386 11.425 1.708.541 4.049 1.282 7.901 3.301 6.227 3.245 8.379 11.597 6.86 17.799z"/><path d="m316.577 177.897c11.467 0 20.795-9.328 20.795-20.794v-28.771c0-11.466-9.328-20.794-20.795-20.794h-115.229c-11.466 0-20.794 9.328-20.794 20.794v28.771c0 11.466 9.328 20.794 20.794 20.794zm-121.023-20.794v-28.771c0-3.195 2.6-5.794 5.794-5.794h115.229c3.195 0 5.795 2.599 5.795 5.794v28.771c0 3.195-2.6 5.794-5.795 5.794h-115.229c-3.194 0-5.794-2.599-5.794-5.794z"/></svg>