<svg id="Layer_1" enable-background="new 0 0 512 512" height="512" viewBox="0 0 512 512" width="512" xmlns="http://www.w3.org/2000/svg"><g><g><g><g id="XMLID_511_"><g id="XMLID_563_"><g id="XMLID_621_"><g id="XMLID_622_"><g id="XMLID_623_"><g id="XMLID_669_"><g id="XMLID_670_"><g id="XMLID_671_"><g id="XMLID_672_"><g id="XMLID_673_"><g id="XMLID_674_"><g id="XMLID_675_"><g id="XMLID_690_"><g id="XMLID_691_"><g id="XMLID_692_"><circle cx="256" cy="256" fill="#565656" r="256"/></g></g></g></g></g></g></g></g></g></g></g></g></g></g></g></g></g><path d="m512 256c0-36.807-7.783-71.792-21.769-103.421l-58.717-56.284-89.166 6.386-47.285-44.664-75.15 29.178 47.352 39.324c-9.074 1.036-37.137 11.373-45.686 13.87l-47.523-46.85-90.384 76.001 44.879 42.386c-14.057 23.762 11.638 47.595 11.638 77.147 0 42.392 3.729 74.251 30.784 102.863 0 0-51.111 45.147-41.013 52.68l58.308 58.308c21.575 5.906 44.282 9.076 67.732 9.076 141.385 0 256-114.615 256-256z" fill="#2f3030"/><g><g><path d="m329.486 412.322 36.566-27.283 20.632 27.652c7.534 10.097 5.456 24.39-4.642 31.924-10.097 7.534-24.39 5.456-31.924-4.642z" fill="#f2c697"/><path d="m182.514 412.322-36.566-27.283-20.632 27.652c-7.534 10.097-5.456 24.39 4.642 31.924 10.097 7.534 24.39 5.456 31.924-4.642z" fill="#fff0d7"/></g><g><g><path d="m237.779 67.037h36.442v67.526h-36.442z" fill="#ff9d21"/></g><g><path d="m256 67.04h18.22v67.52h-18.22z" fill="#ff7038"/></g><g><g><path d="m123.015 125.707h47.783v60.026h-47.783z" fill="#fff0d7" transform="matrix(.802 -.598 .598 .802 -63.959 118.762)"/><path d="m178.163 99.039-94.491 70.501-4.049-5.427c-18.412-24.677-13.333-59.608 11.344-78.02l5.127-3.825c24.677-18.412 59.608-13.333 78.02 11.344z" fill="#ffd321"/></g><g><path d="m341.202 125.707h47.783v60.026h-47.783z" fill="#f2c697" transform="matrix(-.802 -.598 .598 -.802 564.592 498.856)"/><path d="m333.837 99.039 94.491 70.501 4.049-5.427c18.412-24.677 13.333-59.608-11.344-78.02l-5.127-3.825c-24.677-18.412-59.608-13.333-78.02 11.344z" fill="#ff9d21"/></g></g><g><g><g><g id="XMLID_794_"><g id="XMLID_795_"><g id="XMLID_796_"><g id="XMLID_797_"><g id="XMLID_798_"><g id="XMLID_799_"><g id="XMLID_800_"><g id="XMLID_801_"><g id="XMLID_802_"><g id="XMLID_803_"><g id="XMLID_804_"><g id="XMLID_805_"><g id="XMLID_806_"><g id="XMLID_807_"><g id="XMLID_808_"><ellipse cx="256" cy="283.367" fill="#fff0d7" rx="138.302" ry="138.302" transform="matrix(.707 -.707 .707 .707 -125.39 264.016)"/></g></g></g></g></g></g></g></g></g></g></g></g></g></g></g></g></g><g><g><g id="XMLID_758_"><g id="XMLID_759_"><g id="XMLID_760_"><g id="XMLID_761_"><g id="XMLID_762_"><g id="XMLID_763_"><g id="XMLID_764_"><g id="XMLID_773_"><g id="XMLID_774_"><g id="XMLID_775_"><g id="XMLID_776_"><g id="XMLID_777_"><g id="XMLID_778_"><g id="XMLID_779_"><g><path d="m394.305 283.367c0 76.386-61.919 138.305-138.305 138.305v-276.609c76.386 0 138.305 61.918 138.305 138.304z" fill="#f2c697"/></g></g></g></g></g></g></g></g></g></g></g></g></g></g></g></g></g><g><g><path d="m240.139 203.857h31.721v79.51h-31.721z" fill="#544ed1"/></g></g><g><path d="m256 203.857h15.861v79.51h-15.861z" fill="#3d38be"/></g><g><g><path d="m204.593 286.12h61.494v31.721h-61.494z" fill="#544ed1" transform="matrix(.738 -.675 .675 .738 -142.146 238.095)"/></g></g><ellipse cx="256" cy="283.367" fill="#ff405c" rx="23.576" ry="23.576" transform="matrix(.833 -.553 .553 .833 -114.043 189.023)"/><path d="m279.576 283.367c0 13.02-10.555 23.575-23.575 23.575v-47.15c4.16 0 8.061 1.073 11.451 2.968 7.232 4.02 12.124 11.74 12.124 20.607z" fill="#c1126b"/><g><g><g><path d="m256 442.992c-88.018 0-159.625-71.608-159.625-159.625s71.607-159.625 159.625-159.625 159.625 71.608 159.625 159.625-71.608 159.625-159.625 159.625zm0-270.908c-61.362 0-111.283 49.922-111.283 111.283 0 61.362 49.922 111.284 111.283 111.284s111.283-49.922 111.283-111.284-49.921-111.283-111.283-111.283z" fill="#ffd321"/></g></g></g><g><g><path d="m256 123.742v48.342c61.365 0 111.283 49.918 111.283 111.283s-49.918 111.283-111.283 111.283v48.342c88.016 0 159.625-71.609 159.625-159.625s-71.609-159.625-159.625-159.625z" fill="#ff9d21"/></g></g></g><path d="m284.786 89.699h-57.573c-6.6 0-12-5.4-12-12v-13.512c0-6.6 5.4-12 12-12h57.573c6.6 0 12 5.4 12 12v13.512c0 6.6-5.399 12-12 12z" fill="#ffd321"/><path d="m296.79 64.19v13.51c0 6.6-5.4 12-12 12h-28.79v-37.51h28.79c6.6 0 12 5.4 12 12z" fill="#ff9d21"/></g></g></g></svg>